<?xml version="1.0" encoding="UTF-8"?>
<svg version="1.1" xmlns="http://www.w3.org/2000/svg" width="1024" height="1024">
<path d="M0 0 C337.92 0 675.84 0 1024 0 C1024 337.92 1024 675.84 1024 1024 C686.08 1024 348.16 1024 0 1024 C0 686.08 0 348.16 0 0 Z " fill="#FDFEFE" transform="translate(0,0)"/>
<path d="M0 0 C1.0278287 -0.00679667 1.0278287 -0.00679667 2.07642162 -0.01373065 C4.36049611 -0.02633697 6.64433097 -0.02475666 8.92843628 -0.02310181 C10.57172958 -0.02909005 12.21502007 -0.03589627 13.85830688 -0.04345703 C18.31784501 -0.06110967 22.77730633 -0.06581254 27.23687601 -0.0670886 C30.03146944 -0.06851296 32.82604355 -0.0727883 35.62063217 -0.07808304 C45.39544658 -0.09659187 55.1702065 -0.10475395 64.94503784 -0.10317993 C74.01187554 -0.10198334 83.07847332 -0.12298831 92.14525044 -0.15466726 C99.95879408 -0.18097994 107.77226023 -0.19154076 115.58584774 -0.19026911 C120.23887807 -0.18976318 124.89169589 -0.19523715 129.54468155 -0.21662521 C176.86948095 -0.41875885 176.86948095 -0.41875885 197.959198 11.26742554 C198.93115112 11.80238647 199.90310425 12.33734741 200.9045105 12.88851929 C220.24755684 24.37861946 233.89728415 43.06538882 240.459198 64.45492554 C246.04293661 87.43969897 242.70606943 113.17041924 230.74435425 133.54476929 C228.04107496 137.66771385 225.13845647 141.50289449 221.959198 145.26742554 C221.23216675 146.22842163 221.23216675 146.22842163 220.490448 147.20883179 C208.12755934 162.82013252 187.34377821 172.58581387 167.959198 175.26742554 C165.24422959 175.35342016 162.55651919 175.39419658 159.84249878 175.38095093 C159.03888853 175.38107146 158.23527828 175.381192 157.40731621 175.38131618 C154.82301883 175.38057372 152.23879486 175.37297601 149.6545105 175.36508179 C148.05221593 175.3636103 146.44992088 175.36259086 144.84762573 175.36203003 C138.92647579 175.35680108 133.00533616 175.34283981 127.084198 175.32992554 C113.842948 175.30930054 100.601698 175.28867554 86.959198 175.26742554 C86.959198 218.16742554 86.959198 261.06742554 86.959198 305.26742554 C37.789198 305.26742554 -11.380802 305.26742554 -62.040802 305.26742554 C-60.91480466 290.62946011 -60.91480466 290.62946011 -60.20877075 285.20101929 C-59.97371826 283.38187012 -59.97371826 283.38187012 -59.73391724 281.52597046 C-59.56706421 280.26502563 -59.40021118 279.00408081 -59.228302 277.70492554 C-59.05118139 276.347275 -58.87418189 274.98960865 -58.69729614 273.63192749 C-57.37929859 263.5740155 -55.93933174 253.53528392 -54.47341919 243.49789429 C-53.17445999 234.48972756 -52.11586884 225.46572082 -51.11477661 216.42025757 C-50.32911556 209.43743463 -49.32998929 202.52551286 -48.16555786 195.59725952 C-47.03590734 188.68026588 -46.28129011 181.73553432 -45.540802 174.76742554 C-44.63960281 166.28700028 -43.58065287 157.88513293 -42.165802 149.47616577 C-40.88083503 141.66681246 -40.03853535 133.81503445 -39.165802 125.95077515 C-38.42530508 119.36392005 -37.57215686 112.81478308 -36.540802 106.26742554 C-35.33714391 98.61996507 -34.39777523 90.96122743 -33.540802 83.26742554 C-32.6127261 74.94477727 -31.56078826 66.67133693 -30.23391724 58.40316772 C-29.38066096 52.94101402 -28.7081864 47.46914931 -28.103302 41.97445679 C-27.9359763 40.48494659 -27.76857665 38.99544469 -27.60110474 37.50595093 C-27.35154778 35.28121439 -27.10729011 33.05657868 -26.88043213 30.82940674 C-24.95466405 11.93006477 -24.95466405 11.93006477 -17.165802 5.39242554 C-16.21060669 4.56098022 -16.21060669 4.56098022 -15.2361145 3.71273804 C-10.40661811 0.53317635 -5.68078945 0.01557953 0 0 Z " fill="#2965A9" transform="translate(364.0408020019531,394.7325744628906)"/>
<path d="M0 0 C0.80312811 -0.00170885 1.60625622 -0.0034177 2.43372154 -0.00517833 C5.10377526 -0.00845201 7.77357326 0.00249519 10.44360352 0.01345825 C12.36594131 0.01402283 14.28827953 0.0137049 16.21061707 0.01257324 C21.41456084 0.01200053 26.618412 0.02374168 31.82233429 0.03772116 C37.26623563 0.05024208 42.71013921 0.05140009 48.15405273 0.05377197 C58.45631162 0.05998273 68.75852796 0.0763881 79.06076813 0.09647095 C90.79228434 0.11884251 102.52380261 0.12982655 114.25533485 0.13986182 C138.38191673 0.16075467 162.50846086 0.19592281 186.63500977 0.24050903 C188.5757769 11.57995978 190.13643579 22.73892314 190.63500977 34.24050903 C189.11899532 34.24409156 189.11899532 34.24409156 187.57235432 34.24774647 C162.99391379 34.30650986 138.41557154 34.38237307 113.83723927 34.47622395 C101.95139769 34.52121237 90.06558628 34.56062002 78.1796875 34.58694458 C67.8213829 34.60989997 57.46317352 34.64327045 47.10494441 34.68921059 C41.61903411 34.71317596 36.13321832 34.73188303 30.64725685 34.73812294 C25.48527163 34.74415878 20.32352832 34.76410431 15.16163254 34.79478455 C13.26576986 34.80358886 11.3698756 34.80728242 9.4739933 34.8055172 C6.8874359 34.80386908 4.30162001 34.82052399 1.71516418 34.84178162 C0.96321158 34.83693404 0.21125897 34.83208646 -0.56348008 34.82709199 C-5.04995029 34.88803347 -7.69709629 35.68840529 -11.36499023 38.24050903 C-12.02499023 38.24050903 -12.68499023 38.24050903 -13.36499023 38.24050903 C-13.67436523 39.02425903 -13.98374023 39.80800903 -14.30249023 40.61550903 C-15.36499023 43.24050903 -15.36499023 43.24050903 -16.36499023 45.24050903 C-16.98100057 51.19527562 -16.15717405 54.45464674 -12.94702148 59.47879028 C-10.5142882 62.18783401 -8.11183689 63.99627119 -4.41508484 64.51313782 C-2.04907324 64.61709686 0.30193348 64.62910306 2.67016602 64.61160278 C4.4676938 64.62900145 6.2652198 64.64658563 8.06274414 64.66433716 C10.8709673 64.67434995 13.67906453 64.67802033 16.48730469 64.67630005 C33.53960353 64.69890184 47.9290536 66.81976234 60.88500977 78.99050903 C69.88248846 88.5866103 74.78276197 100.31013668 75.01000977 113.49050903 C74.8283949 118.96317018 74.30179091 124.02110293 72.63500977 129.24050903 C72.25022461 130.45480591 72.25022461 130.45480591 71.85766602 131.69363403 C69.53923247 138.18126783 66.14953962 143.07966829 61.63500977 148.24050903 C61.13485352 148.85796997 60.63469727 149.47543091 60.11938477 150.11160278 C53.43666874 157.68872272 41.51260558 163.5527553 31.48032153 164.42862415 C28.99443661 164.50898667 26.51558533 164.52630186 24.02839661 164.52139282 C23.07941472 164.52733507 22.13043284 164.53327731 21.15269393 164.53939962 C17.98245647 164.55670064 14.81237071 164.55978386 11.64208984 164.56277466 C9.36498698 164.57203616 7.0878872 164.58208618 4.81079102 164.59286499 C-1.36915402 164.61906682 -7.54905565 164.63199376 -13.72904754 164.64088631 C-17.59279635 164.64675499 -21.45653339 164.65496595 -25.32027626 164.66389465 C-36.03232964 164.68810239 -46.74436759 164.70887001 -57.45644665 164.71564484 C-58.48347989 164.71630353 -58.48347989 164.71630353 -59.53126128 164.71697554 C-60.21752195 164.7174121 -60.90378262 164.71784865 -61.61083907 164.71829844 C-63.00130157 164.71918535 -64.39176407 164.72007847 -65.78222656 164.72097778 C-66.47193357 164.72142064 -67.16164057 164.7218635 -67.87224779 164.72231978 C-79.04120769 164.73021134 -90.20990628 164.76511068 -101.37876531 164.81169683 C-112.8645125 164.85921539 -124.35009152 164.88353749 -135.83594209 164.88638067 C-142.27729368 164.88847385 -148.71827635 164.90022664 -155.15953636 164.9360199 C-161.22129164 164.96905015 -167.28240203 164.97325961 -173.34421539 164.95574188 C-175.56291497 164.9542048 -177.78164972 164.96283838 -180.00026131 164.98265839 C-203.38590775 165.17924243 -203.38590775 165.17924243 -213.56732464 156.32532501 C-218.54995709 151.4129547 -222.21256142 144.28819389 -222.42640686 137.20669556 C-222.40593465 135.21796672 -222.38546244 133.22923787 -222.36499023 131.24050903 C-220.43567154 131.23969188 -220.43567154 131.23969188 -218.46737671 131.23885822 C-187.92675948 131.22481032 -157.38629596 131.18504185 -126.84576303 131.11365341 C-123.08573372 131.10488679 -119.32570394 131.09633696 -115.56567383 131.08792114 C-114.44285509 131.08540255 -114.44285509 131.08540255 -113.29735315 131.08283307 C-101.18124684 131.05617228 -89.06518783 131.04706866 -76.94905519 131.04446761 C-64.51429398 131.04140681 -52.07966943 131.01944557 -39.64496994 130.97998446 C-31.97368833 130.95623424 -24.30267962 130.94717952 -16.63136631 130.95699593 C-10.74633466 130.9629463 -4.86157742 130.94258429 1.023386 130.91244888 C3.43562248 130.90420523 5.84790544 130.90447779 8.26013756 130.91391182 C11.55532495 130.9255231 14.84897501 130.90642927 18.14404297 130.87974548 C19.09736826 130.89041874 20.05069355 130.901092 21.03290749 130.91208869 C27.41614516 130.81573262 31.6932705 129.35071459 36.63500977 125.24050903 C39.57138135 121.61937096 40.04530319 118.8521827 40.01000977 114.24050903 C40.01774414 113.22988403 40.02547852 112.21925903 40.03344727 111.17800903 C39.55414094 107.64429968 38.92467698 105.99172972 36.63500977 103.24050903 C30.94327957 99.37486345 25.82831297 98.69088231 19.08813477 98.80691528 C17.25480061 98.79730568 15.42146729 98.78753497 13.58813477 98.77761841 C10.74037707 98.78618125 7.89284859 98.80294771 5.04516602 98.82522583 C-12.05123206 98.91562807 -23.78007635 96.35758142 -36.48608398 84.21316528 C-46.13792138 74.12343734 -50.18455006 62.56589868 -50.67749023 48.80300903 C-50.32917033 35.17983069 -44.97148552 23.89627529 -35.80249023 13.92800903 C-26.0145204 4.64811702 -13.41547134 -0.10626987 0 0 Z " fill="#6ABF93" transform="translate(521.364990234375,589.7594909667969)"/>
<path d="M0 0 C10.40560862 -0.06968359 20.8111612 -0.12290427 31.21695614 -0.15543652 C36.04942539 -0.17105481 40.88173432 -0.19222264 45.71411133 -0.22631836 C50.38254421 -0.2590491 55.05082343 -0.27688184 59.71936226 -0.28463173 C61.49545267 -0.2901507 63.27153521 -0.30092767 65.04755974 -0.31719017 C87.38057971 -0.51344928 87.38057971 -0.51344928 94.65625 6.3984375 C101.46001818 14.5075798 101.88194985 23.4922735 102.75976562 33.57910156 C103.14818993 37.49334491 103.76676191 41.36506038 104.375 45.25 C105.63657517 53.36682975 106.76585892 61.49801073 107.84765625 69.640625 C108.02058701 70.94028198 108.19351776 72.23993896 108.37168884 73.57897949 C110.35512478 88.54177513 112.2089966 103.52066644 114.0625 118.5 C114.73926587 123.96895196 115.41734785 129.43773752 116.09765625 134.90625 C116.25916168 136.20546387 116.42066711 137.50467773 116.58706665 138.84326172 C117.70038506 147.74471081 118.87557054 156.63602562 120.13380432 165.51818848 C120.24876755 166.33783081 120.36373077 167.15747314 120.48217773 168.00195312 C120.58280014 168.70743286 120.68342255 169.4129126 120.78709412 170.13977051 C121 172 121 172 121 175 C81.07 175 41.14 175 0 175 C2.96638396 172.03361604 5.62916374 169.41948485 8.8125 166.8125 C27.62624638 150.43888238 39.81538191 123.5992695 42 99 C43.83740503 66.93861361 36.10099386 39.44270873 15 15 C9.16075478 8.51580922 9.16075478 8.51580922 2.20703125 3.3515625 C1.47871094 2.90554688 0.75039063 2.45953125 0 2 C0 1.34 0 0.68 0 0 Z " fill="#2964A9" transform="translate(584,395)"/>
<path d="M0 0 C42.57 0 85.14 0 129 0 C131.24452436 15.71167054 133.44565529 31.31545324 135.2734375 47.0625 C136.06253093 53.7056667 137.0285347 60.32189244 138.08618164 66.92749023 C139.89367855 78.78257924 139.56318436 89.36876232 132.203125 99.46484375 C126.6955945 105.37993151 120.07965968 109.10642029 111.89353943 109.48101807 C110.0116406 109.49246143 108.12952471 109.48232502 106.24780273 109.45410156 C105.21261002 109.45468567 104.1774173 109.45526978 103.1108551 109.45587158 C99.7180834 109.45310374 96.32621036 109.42207253 92.93359375 109.390625 C90.56991557 109.38315801 88.20623116 109.37746724 85.84254456 109.37347412 C79.64300225 109.35825404 73.44383906 109.31900308 67.2444458 109.2746582 C60.90976081 109.23362742 54.57501415 109.21544643 48.24023438 109.1953125 C35.82665701 109.15250563 23.41336012 109.08429801 11 109 C14.78613281 103.30371094 14.78613281 103.30371094 16.7109375 100.5703125 C28.61599651 83.07602391 30.80740554 64.04383427 28.609375 43.31640625 C25.10823453 27.13485316 15.01904353 11.79309435 1.65234375 2.2421875 C1.10707031 1.83226562 0.56179688 1.42234375 0 1 C0 0.67 0 0.34 0 0 Z " fill="#6ABF95" transform="translate(586,645)"/>
<path d="M0 0 C12.478125 -0.0825 24.95625 -0.165 37.8125 -0.25 C41.73229736 -0.28641602 45.65209473 -0.32283203 49.69067383 -0.36035156 C54.52868652 -0.37841797 54.52868652 -0.37841797 56.80351257 -0.3817749 C58.37057558 -0.3878616 59.9376215 -0.40181278 61.50456238 -0.42230225 C76.13529425 -0.60382022 88.27271321 1.62987975 99.1953125 12.10546875 C108.64131028 22.2311601 111.53112275 32.38103997 111.3125 46.11328125 C110.33213593 58.30655941 105.47958187 68.02180716 96.625 76.3125 C88.50680693 83.16392804 79.83007445 86.33758292 69.13696289 86.22705078 C68.37288085 86.22729185 67.60879881 86.22753292 66.82156277 86.2277813 C64.37180479 86.22629997 61.9223591 86.21112205 59.47265625 86.1953125 C57.95080715 86.19236839 56.42895603 86.19033022 54.90710449 86.18920898 C49.29220525 86.17876424 43.67734949 86.15084169 38.0625 86.125 C25.501875 86.08375 12.94125 86.0425 0 86 C0 57.62 0 29.24 0 0 Z " fill="#FEFEFE" transform="translate(452,440)"/>
<path d="M0 0 C2.24200806 1.70518923 4.39162999 3.48073898 6.53125 5.3125 C7.33046875 5.96734375 8.1296875 6.6221875 8.953125 7.296875 C24.1747639 20.24944972 33.57491709 37.0760396 38.53125 56.3125 C38.8921875 57.4984375 39.253125 58.684375 39.625 59.90625 C41.00908864 65.47976131 40.74426575 71.10783291 40.65625 76.8125 C40.615 80.6075 40.57375 84.4025 40.53125 88.3125 C29.97125 88.3125 19.41125 88.3125 8.53125 88.3125 C8.469375 85.321875 8.4075 82.33125 8.34375 79.25 C7.61706238 61.3050561 0.77444851 44.76398555 -12.46875 32.3125 C-18.84853836 27.0491746 -25.75361947 23.25006016 -33.46875 20.3125 C-34.30019531 19.99152344 -35.13164063 19.67054688 -35.98828125 19.33984375 C-49.53861038 15.07436679 -68.6877542 14.78685562 -81.46875 21.3125 C-82.46648437 21.81007813 -83.46421875 22.30765625 -84.4921875 22.8203125 C-101.2315232 31.88569581 -112.10764131 45.85595285 -117.59765625 64.0546875 C-118.74574516 68.93304392 -118.91900464 73.82024876 -119.09375 78.8125 C-119.279375 83.515 -119.279375 83.515 -119.46875 88.3125 C-130.02875 88.3125 -140.58875 88.3125 -151.46875 88.3125 C-152.16548597 59.22377305 -146.44974459 35.44687629 -126.7734375 13.1796875 C-112.53161362 -1.72647802 -94.48960173 -11.3711897 -74.46875 -15.6875 C-73.69337891 -15.8625708 -72.91800781 -16.0376416 -72.11914062 -16.21801758 C-46.89787984 -20.68563774 -20.93983036 -14.31330177 0 0 Z " fill="#2C66A9" transform="translate(567.46875,286.6875)"/>
<path d="M0 0 C2.47030334 2.81103484 2.9733724 4.7869792 3.4375 8.5 C2.92292801 12.61657593 2.08453641 14.24892699 -1 17 C-3.5625 17.5625 -3.5625 17.5625 -6 17 C-8.27898863 15.19252626 -8.89083092 13.72557499 -9.3203125 10.87109375 C-9.51124371 7.00791901 -9.47390865 4.71963906 -7.3125 1.4375 C-4.51805419 -0.29958793 -3.22056813 -0.74320803 0 0 Z " fill="#979797" transform="translate(775,966)"/>
<path d="M0 0 C2.5 0.4375 2.5 0.4375 4.3125 1.9375 C5.97805896 5.44393992 6.04536841 8.66474596 5.5 12.4375 C4.3125 15.4375 4.3125 15.4375 2.5 17.4375 C0 18 0 18 -2.5 17.4375 C-5.29993354 14.49020154 -5.91141078 12.39839114 -5.875 8.375 C-5.88273438 7.51777344 -5.89046875 6.66054688 -5.8984375 5.77734375 C-5.26139982 2.03630874 -3.68669193 0.64517109 0 0 Z " fill="#868989" transform="translate(917.5,965.5625)"/>
<path d="M0 0 C1.32 0.33 2.64 0.66 4 1 C5.265625 3.28515625 5.265625 3.28515625 6.25 6.0625 C6.75273438 7.44115234 6.75273438 7.44115234 7.265625 8.84765625 C7.50796875 9.55792969 7.7503125 10.26820313 8 11 C10.15266842 8.84733158 10.93474462 7.15226256 12.125 4.375 C12.47820313 3.55773437 12.83140625 2.74046875 13.1953125 1.8984375 C13.46085938 1.27195312 13.72640625 0.64546875 14 0 C14.99 0 15.98 0 17 0 C17 5.61 17 11.22 17 17 C16.01 17 15.02 17 14 17 C13.67 14.36 13.34 11.72 13 9 C11.68 11.64 10.36 14.28 9 17 C6.16671013 14.16671013 5.2808625 12.64553172 4 9 C3.67 11.64 3.34 14.28 3 17 C2.01 17 1.02 17 0 17 C0 11.39 0 5.78 0 0 Z " fill="#949696" transform="translate(869,966)"/>
<path d="M0 0 C2.5 0.5 2.5 0.5 4.1328125 2.21484375 C5.73224038 4.88817321 5.90299219 6.4693629 5.875 9.5625 C5.88273438 10.41972656 5.89046875 11.27695312 5.8984375 12.16015625 C5.42444222 14.94371675 4.73635572 15.82540828 2.5 17.5 C0 18 0 18 -2.5 17.5 C-5.06807522 14.66626183 -5.71502349 12.15869271 -5.875 8.4375 C-5.42340018 3.69570191 -4.95885696 0.99177139 0 0 Z " fill="#8D8F8E" transform="translate(945.5,934.5)"/>
<path d="M0 0 C2.46507954 3.69761931 2.67613492 6.70946484 2 11 C0.3125 14 0.3125 14 -2 16 C-4.75 16.3125 -4.75 16.3125 -7 16 C-7.66 14.68 -8.32 13.36 -9 12 C-6.03 12.495 -6.03 12.495 -3 13 C-2.34 11.68 -1.68 10.36 -1 9 C-2.3921875 9.3403125 -2.3921875 9.3403125 -3.8125 9.6875 C-7 10 -7 10 -8.875 8.875 C-10.37957373 6.36737712 -10.4318188 4.87879197 -10 2 C-7.59684073 -2.24086929 -4.21511384 -1.07293807 0 0 Z " fill="#8E8F8F" transform="translate(844,967)"/>
<path d="M0 0 C1.11375 0.1546875 1.11375 0.1546875 2.25 0.3125 C2.91 1.6325 3.57 2.9525 4.25 4.3125 C1.28 3.8175 1.28 3.8175 -1.75 3.3125 C-2.08 4.3025 -2.41 5.2925 -2.75 6.3125 C-1.96625 6.27125 -1.1825 6.23 -0.375 6.1875 C2.25 6.3125 2.25 6.3125 4.25 8.3125 C4.5 11.8125 4.5 11.8125 4.25 15.3125 C3.59 15.9725 2.93 16.6325 2.25 17.3125 C-1.25 17.1875 -1.25 17.1875 -4.75 16.3125 C-6.85711118 13.93054823 -6.77861196 12.05022373 -7.125 8.875 C-6.61350315 4.01577996 -5.20133912 0.59106126 0 0 Z " fill="#858989" transform="translate(973.75,934.6875)"/>
<path d="M0 0 C8.38769385 -0.48624312 8.38769385 -0.48624312 11.125 1.6875 C12.21281982 4.56245238 11.93887931 6.10512213 11 9 C10 10 10 10 8.15234375 10.09765625 C6.1015625 10.06510417 4.05078125 10.03255208 2 10 C2 12.31 2 14.62 2 17 C1.34 17 0.68 17 0 17 C0 11.39 0 5.78 0 0 Z " fill="#8D908F" transform="translate(855,966)"/>
<path d="M0 0 C0.33 0 0.66 0 1 0 C1 5.61 1 11.22 1 17 C-7 17 -7 17 -9.0625 15.4375 C-10.38015596 12.0115945 -9.79870221 9.52760143 -9 6 C-8 5 -8 5 -5.0625 4.875 C-2 5 -2 5 0 6 C0 4.02 0 2.04 0 0 Z " fill="#888A8B" transform="translate(759,935)"/>
<path d="M0 0 C2.375 -0.125 2.375 -0.125 5 0 C7 2 7 2 7.1953125 4.6015625 C7.17210937 5.59929688 7.14890625 6.59703125 7.125 7.625 C7.10695313 8.62789062 7.08890625 9.63078125 7.0703125 10.6640625 C7.03550781 11.82035156 7.03550781 11.82035156 7 13 C0.9453125 13.1953125 0.9453125 13.1953125 -1 13 C-1.66 12.34 -2.32 11.68 -3 11 C-2.625 8.375 -2.625 8.375 -2 6 C-0.02 6 1.96 6 4 6 C4 4.68 4 3.36 4 2 C2.02 2.66 0.04 3.32 -2 4 C-1.34 2.68 -0.68 1.36 0 0 Z " fill="#A8AAAA" transform="translate(766,939)"/>
<path d="M0 0 C3.3 0 6.6 0 10 0 C10 0.66 10 1.32 10 2 C7.69 2 5.38 2 3 2 C3 3.32 3 4.64 3 6 C4.1446875 5.9071875 4.1446875 5.9071875 5.3125 5.8125 C8 6 8 6 9.875 7.125 C11 9 11 9 10.8125 12.0625 C10 15 10 15 8 17 C4.875 17.125 4.875 17.125 2 17 C1.34 15.68 0.68 14.36 0 13 C2.31 13.33 4.62 13.66 7 14 C7 12.35 7 10.7 7 9 C4.69 9 2.38 9 0 9 C0 6.03 0 3.06 0 0 Z " fill="#959594" transform="translate(801,966)"/>
<path d="M0 0 C1.23556641 0.01740234 1.23556641 0.01740234 2.49609375 0.03515625 C3.32238281 0.04417969 4.14867187 0.05320312 5 0.0625 C5.63808594 0.07410156 6.27617188 0.08570313 6.93359375 0.09765625 C6.60359375 1.08765625 6.27359375 2.07765625 5.93359375 3.09765625 C3.95359375 3.09765625 1.97359375 3.09765625 -0.06640625 3.09765625 C-0.06640625 4.08765625 -0.06640625 5.07765625 -0.06640625 6.09765625 C0.90296875 6.24203125 1.87234375 6.38640625 2.87109375 6.53515625 C5.93359375 7.09765625 5.93359375 7.09765625 6.93359375 8.09765625 C7.12109375 11.53515625 7.12109375 11.53515625 6.93359375 15.09765625 C4.93359375 17.09765625 4.93359375 17.09765625 1.80859375 17.22265625 C0.38546875 17.16078125 0.38546875 17.16078125 -1.06640625 17.09765625 C-1.72640625 15.77765625 -2.38640625 14.45765625 -3.06640625 13.09765625 C-0.75640625 13.42765625 1.55359375 13.75765625 3.93359375 14.09765625 C3.93359375 12.44765625 3.93359375 10.79765625 3.93359375 9.09765625 C1.62359375 9.09765625 -0.68640625 9.09765625 -3.06640625 9.09765625 C-3.1640625 2.9453125 -3.1640625 2.9453125 -3.06640625 1.09765625 C-2.06640625 0.09765625 -2.06640625 0.09765625 0 0 Z " fill="#9A9D9F" transform="translate(905.06640625,934.90234375)"/>
<path d="M0 0 C1.26237731 2.52475462 1.09856404 4.31200466 1.0625 7.125 C1.05347656 8.03507813 1.04445313 8.94515625 1.03515625 9.8828125 C1.02355469 10.58148437 1.01195312 11.28015625 1 12 C-5.0546875 12.1953125 -5.0546875 12.1953125 -7 12 C-7.66 11.34 -8.32 10.68 -9 10 C-8.625 7.375 -8.625 7.375 -8 5 C-6.02 5 -4.04 5 -2 5 C-2.33 4.01 -2.66 3.02 -3 2 C-4.65 2 -6.3 2 -8 2 C-8 1.34 -8 0.68 -8 0 C-5.09660535 -1.45169732 -3.09125158 -0.72348441 0 0 Z " fill="#888C8F" transform="translate(858,940)"/>
<path d="M0 0 C5.875 0.875 5.875 0.875 7 2 C7.07226502 3.85287502 7.0838122 5.70833878 7.0625 7.5625 C7.05347656 8.57441406 7.04445313 9.58632813 7.03515625 10.62890625 C7.02355469 11.41136719 7.01195312 12.19382812 7 13 C0.9453125 13.1953125 0.9453125 13.1953125 -1 13 C-1.66 12.34 -2.32 11.68 -3 11 C-2.625 8.375 -2.625 8.375 -2 6 C-0.02 5.67 1.96 5.34 4 5 C4 4.34 4 3.68 4 3 C2.02 3.33 0.04 3.66 -2 4 C-1.34 2.68 -0.68 1.36 0 0 Z " fill="#8E9293" transform="translate(813,939)"/>
<path d="M0 0 C3.3 0 6.6 0 10 0 C10 0.66 10 1.32 10 2 C7.36 2 4.72 2 2 2 C2 3.32 2 4.64 2 6 C2.928125 5.9175 3.85625 5.835 4.8125 5.75 C8 6 8 6 9.9375 7.6875 C11.28233625 10.61449654 11.03115662 11.98584989 10 15 C8 17 8 17 4.875 17.125 C3.451875 17.063125 3.451875 17.063125 2 17 C1.34 15.68 0.68 14.36 0 13 C2.31 13.33 4.62 13.66 7 14 C7 12.35 7 10.7 7 9 C4.69 9.33 2.38 9.66 0 10 C0 6.7 0 3.4 0 0 Z " fill="#C7C8C9" transform="translate(954,966)"/>
<path d="M0 0 C3.0625 0.3125 3.0625 0.3125 4.9375 1.6875 C6.0625 3.3125 6.0625 3.3125 6.0625 5.3125 C5.485 4.9825 4.9075 4.6525 4.3125 4.3125 C1.86366138 3.04174102 1.86366138 3.04174102 -1.9375 3.3125 C-1.9375 4.3025 -1.9375 5.2925 -1.9375 6.3125 C-0.803125 6.68375 0.33125 7.055 1.5 7.4375 C3.4375 8.24609375 3.4375 8.24609375 5.0625 9.3125 C6 12.5 6 12.5 6.0625 15.3125 C2.4183226 17.7419516 0.35008728 17.47429575 -3.9375 17.3125 C-4.5975 15.9925 -5.2575 14.6725 -5.9375 13.3125 C-3.2975 13.6425 -0.6575 13.9725 2.0625 14.3125 C2.0625 13.3225 2.0625 12.3325 2.0625 11.3125 C1.11375 10.85875 0.165 10.405 -0.8125 9.9375 C-3.9375 8.3125 -3.9375 8.3125 -5.9375 6.3125 C-5.42715039 2.2297031 -4.25353963 0.45250422 0 0 Z " fill="#909294" transform="translate(714.9375,934.6875)"/>
<path d="M0 0 C1.23556641 0.01740234 1.23556641 0.01740234 2.49609375 0.03515625 C3.32238281 0.04417969 4.14867187 0.05320312 5 0.0625 C5.63808594 0.07410156 6.27617188 0.08570313 6.93359375 0.09765625 C6.93359375 0.75765625 6.93359375 1.41765625 6.93359375 2.09765625 C4.62359375 2.09765625 2.31359375 2.09765625 -0.06640625 2.09765625 C-0.06640625 3.41765625 -0.06640625 4.73765625 -0.06640625 6.09765625 C0.71734375 6.05640625 1.50109375 6.01515625 2.30859375 5.97265625 C4.93359375 6.09765625 4.93359375 6.09765625 6.93359375 8.09765625 C7.18359375 11.59765625 7.18359375 11.59765625 6.93359375 15.09765625 C4.93359375 17.09765625 4.93359375 17.09765625 1.80859375 17.22265625 C0.38546875 17.16078125 0.38546875 17.16078125 -1.06640625 17.09765625 C-1.72640625 15.77765625 -2.38640625 14.45765625 -3.06640625 13.09765625 C-0.75640625 13.42765625 1.55359375 13.75765625 3.93359375 14.09765625 C3.93359375 12.44765625 3.93359375 10.79765625 3.93359375 9.09765625 C1.62359375 9.09765625 -0.68640625 9.09765625 -3.06640625 9.09765625 C-3.1640625 2.9453125 -3.1640625 2.9453125 -3.06640625 1.09765625 C-2.06640625 0.09765625 -2.06640625 0.09765625 0 0 Z " fill="#868987" transform="translate(929.06640625,965.90234375)"/>
<path d="M0 0 C2.4375 0.375 2.4375 0.375 5 1 C6.50934217 4.01868434 6.17510672 6.67297229 6 10 C5.01 11.485 5.01 11.485 4 13 C0.125 12.125 0.125 12.125 -1 11 C-1.09823996 9.52351124 -1.12973519 8.04224583 -1.125 6.5625 C-1.12757813 5.75941406 -1.13015625 4.95632813 -1.1328125 4.12890625 C-1 2 -1 2 0 0 Z " fill="#F6F4F4" transform="translate(915,968)"/>
<path d="M0 0 C1.32 0 2.64 0 4 0 C5.17673198 2.35346396 5.16623866 3.8806033 5.1875 6.5 C5.20167969 7.2940625 5.21585938 8.088125 5.23046875 8.90625 C5 11 5 11 3 13 C0.9375 12.75 0.9375 12.75 -1 12 C-2.50934217 8.98131566 -2.17510672 6.32702771 -2 3 C-1.34 2.01 -0.68 1.02 0 0 Z " fill="#F7F7F6" transform="translate(770,968)"/>
<path d="M0 0 C2.875 -0.125 2.875 -0.125 6 0 C6.66 0.66 7.32 1.32 8 2 C7.88271462 8.09883958 6.02942919 10.76393342 2 15 C4.31 15 6.62 15 9 15 C9 15.66 9 16.32 9 17 C5.37 17 1.74 17 -2 17 C0.2208589 11.44785276 0.2208589 11.44785276 2.625 8.875 C5.31844072 6.2360372 5.31844072 6.2360372 5 3 C3.68 3 2.36 3 1 3 C0.67 3.66 0.34 4.32 0 5 C-0.66 5 -1.32 5 -2 5 C-1.34 3.35 -0.68 1.7 0 0 Z " fill="#84898A" transform="translate(890,935)"/>
<path d="M0 0 C2 2 2 2 2.125 4.625 C2.08375 5.40875 2.0425 6.1925 2 7 C1.34 7 0.68 7 0 7 C0 7.66 0 8.32 0 9 C0.99 9.33 1.98 9.66 3 10 C2.25 14.75 2.25 14.75 0 17 C-3.125 17.125 -3.125 17.125 -6 17 C-6.66 15.68 -7.32 14.36 -8 13 C-5.69 13.33 -3.38 13.66 -1 14 C-0.67 12.68 -0.34 11.36 0 10 C-1.32 9.67 -2.64 9.34 -4 9 C-4 8.34 -4 7.68 -4 7 C-3.01 6.67 -2.02 6.34 -1 6 C-1 5.01 -1 4.02 -1 3 C-2.32 2.67 -3.64 2.34 -5 2 C-5 2.66 -5 3.32 -5 4 C-5.66 4 -6.32 4 -7 4 C-7 3.01 -7 2.02 -7 1 C-4.48718205 -0.25640898 -2.78302919 -0.20872719 0 0 Z " fill="#8D8D8D" transform="translate(829,966)"/>
<path d="M0 0 C2.125 0.375 2.125 0.375 4 1 C4.2226746 2.43534841 4.42761906 3.87345525 4.625 5.3125 C4.74101563 6.11300781 4.85703125 6.91351562 4.9765625 7.73828125 C5 10 5 10 3 13 C1.0625 12.625 1.0625 12.625 -1 12 C-2.11445498 9.77109005 -2.16480286 8.46944894 -2.1875 6 C-2.20167969 5.29875 -2.21585938 4.5975 -2.23046875 3.875 C-2 2 -2 2 0 0 Z " fill="#F9F8F7" transform="translate(944,937)"/>
<path d="M0 0 C2.33294775 -0.04241723 4.66702567 -0.04092937 7 0 C8 1 8 1 8.375 4.1875 C7.88800303 9.13863591 6.40702082 10.50780366 3 14 C5.97 14.495 5.97 14.495 9 15 C9 15.66 9 16.32 9 17 C5.37 17 1.74 17 -2 17 C0 13 0 13 2.625 10 C5.41380196 7.11502061 5.41380196 7.11502061 5 3 C3.68 2.67 2.36 2.34 1 2 C1 2.66 1 3.32 1 4 C0.34 4 -0.32 4 -1 4 C-0.67 2.68 -0.34 1.36 0 0 Z " fill="#8D8E8C" transform="translate(789,966)"/>
<path d="M0 0 C2.875 -0.125 2.875 -0.125 6 0 C6.66 0.66 7.32 1.32 8 2 C7.88271462 8.09883958 6.02942919 10.76393342 2 15 C3.98 15 5.96 15 8 15 C8 15.66 8 16.32 8 17 C4.7 17 1.4 17 -2 17 C-0.93548812 13.61291675 0.04148153 11.95950613 2.625 9.4375 C5.46524315 7.08972 5.46524315 7.08972 5 3 C3.68 3 2.36 3 1 3 C0.67 3.66 0.34 4.32 0 5 C-0.66 5 -1.32 5 -2 5 C-1.34 3.35 -0.68 1.7 0 0 Z " fill="#7E8282" transform="translate(956,935)"/>
<path d="M0 0 C2.5625 0.1875 2.5625 0.1875 4.5625 2.1875 C5.04587545 5.22585998 5.15343686 7.27741605 3.44140625 9.9140625 C2.20708637 11.38965171 0.88924117 12.79442177 -0.4375 14.1875 C2.5325 14.6825 2.5325 14.6825 5.5625 15.1875 C5.5625 15.8475 5.5625 16.5075 5.5625 17.1875 C2.2625 17.1875 -1.0375 17.1875 -4.4375 17.1875 C-3.4375 13.1875 -3.4375 13.1875 -0.9375 10.25 C1.47390408 7.29603 2.23541091 5.89450963 2.5625 2.1875 C-0.98268884 3.58509905 -0.98268884 3.58509905 -4.4375 5.1875 C-3.32386364 0.25568182 -3.32386364 0.25568182 0 0 Z " fill="#898D8D" transform="translate(931.4375,934.8125)"/>
<path d="M0 0 C0.99 0.33 1.98 0.66 3 1 C3 4.3 3 7.6 3 11 C4.32 10.67 5.64 10.34 7 10 C7.33 7.03 7.66 4.06 8 1 C8.66 1 9.32 1 10 1 C10 4.63 10 8.26 10 12 C7.36 12.33 4.72 12.66 2 13 C-0.20914 9.68629 -0.22481553 8.6553979 -0.125 4.8125 C-0.10695313 3.91144531 -0.08890625 3.01039063 -0.0703125 2.08203125 C-0.04710937 1.39496094 -0.02390625 0.70789063 0 0 Z " fill="#8E9092" transform="translate(723,939)"/>
<path d="M0 0 C6.0546875 -0.1953125 6.0546875 -0.1953125 8 0 C10 2 10 2 10.1953125 4.6015625 C10.17210937 5.59929688 10.14890625 6.59703125 10.125 7.625 C10.10695313 8.62789062 10.08890625 9.63078125 10.0703125 10.6640625 C10.03550781 11.82035156 10.03550781 11.82035156 10 13 C9.34 13 8.68 13 8 13 C7.67 9.7 7.34 6.4 7 3 C5.68 3.33 4.36 3.66 3 4 C2.67 6.97 2.34 9.94 2 13 C1.34 13 0.68 13 0 13 C0 8.71 0 4.42 0 0 Z " fill="#8B9092" transform="translate(823,939)"/>
<path d="M0 0 C0.66 0 1.32 0 2 0 C-1.27310866 11.7460495 -1.27310866 11.7460495 -4 16 C-6.1875 16.875 -6.1875 16.875 -8 17 C-8 16.34 -8 15.68 -8 15 C-7.01 15 -6.02 15 -5 15 C-5.309375 13.80375 -5.61875 12.6075 -5.9375 11.375 C-6.80031573 7.93597561 -7.47370486 4.50863427 -8 1 C-7.34 1 -6.68 1 -6 1 C-5.01 2.98 -4.02 4.96 -3 7 C-2.01 4.69 -1.02 2.38 0 0 Z " fill="#8B8E8E" transform="translate(878,939)"/>
<path d="M0 0 C1.32 0.33 2.64 0.66 4 1 C4.33 3.31 4.66 5.62 5 8 C4.67 8 4.34 8 4 8 C3.67 10.97 3.34 13.94 3 17 C2.01 17 1.02 17 0 17 C0 11.39 0 5.78 0 0 Z " fill="#989A9A" transform="translate(869,966)"/>
<path d="M0 0 C0.66 0 1.32 0 2 0 C2.33 2.97 2.66 5.94 3 9 C4.32 9 5.64 9 7 9 C7.33 6.03 7.66 3.06 8 0 C8.66 0 9.32 0 10 0 C10 3.96 10 7.92 10 12 C3.9453125 12.1953125 3.9453125 12.1953125 2 12 C0 10 0 10 -0.1953125 7.6171875 C-0.17210937 6.71226562 -0.14890625 5.80734375 -0.125 4.875 C-0.10695313 3.96492187 -0.08890625 3.05484375 -0.0703125 2.1171875 C-0.04710937 1.41851563 -0.02390625 0.71984375 0 0 Z " fill="#7F8385" transform="translate(836,940)"/>
<path d="M0 0 C0.66 0.33 1.32 0.66 2 1 C0.68 3.31 -0.64 5.62 -2 8 C-0.35 8 1.3 8 3 8 C3 5.69 3 3.38 3 1 C3.33 1 3.66 1 4 1 C4 3.31 4 5.62 4 8 C4.99 8 5.98 8 7 8 C7 8.66 7 9.32 7 10 C6.34 10 5.68 10 5 10 C5 11.32 5 12.64 5 14 C4.34 14 3.68 14 3 14 C3 12.68 3 11.36 3 10 C0.36 10 -2.28 10 -5 10 C-4.38545304 6.00544473 -2.29353263 3.25533664 0 0 Z " fill="#858787" transform="translate(944,969)"/>
<path d="M0 0 C0.99 0.33 1.98 0.66 3 1 C4.1875 3.5625 4.1875 3.5625 5 6 C5.99 4.02 6.98 2.04 8 0 C8.66 0 9.32 0 10 0 C9.02665823 3.34180675 8.02253973 6.67293044 7 10 C6.690625 11.010625 6.38125 12.02125 6.0625 13.0625 C5 15 5 15 2.875 15.8125 C2.25625 15.874375 1.6375 15.93625 1 16 C1 15.34 1 14.68 1 14 C1.99 14 2.98 14 4 14 C2.68 9.38 1.36 4.76 0 0 Z " fill="#838888" transform="translate(775,940)"/>
<path d="M0 0 C3.53571429 0.53571429 3.53571429 0.53571429 5 2 C5.04080783 3.99958364 5.04254356 6.00045254 5 8 C2.625 8.625 2.625 8.625 0 9 C-2 7 -2 7 -2.25 4.5 C-2 2 -2 2 0 0 Z " fill="#F3F2F2" transform="translate(753,941)"/>
<path d="M0 0 C0.66 0 1.32 0 2 0 C2.08076963 2.45898655 2.14037143 4.91533742 2.1875 7.375 C2.22520508 8.42300781 2.22520508 8.42300781 2.26367188 9.4921875 C2.29296875 11.5234375 2.29296875 11.5234375 2 15 C-1.22791555 17.1519437 -2.28400809 17.20086443 -6 17 C-6.33 15.68 -6.66 14.36 -7 13 C-6.34 13 -5.68 13 -5 13 C-5 13.66 -5 14.32 -5 15 C-3.68 14.67 -2.36 14.34 -1 14 C-0.67 9.38 -0.34 4.76 0 0 Z " fill="#858989" transform="translate(805,935)"/>
<path d="M0 0 C0.99 0 1.98 0 3 0 C3 3.63 3 7.26 3 11 C0.69 11 -1.62 11 -4 11 C-3.67 10.236875 -3.34 9.47375 -3 8.6875 C-1.82563314 6.00930865 -1.82563314 6.00930865 -2 3 C-1.34 2.01 -0.68 1.02 0 0 Z " fill="#BDBDBC" transform="translate(946,966)"/>
<path d="M0 0 C1.99954746 -0.04254356 4.00041636 -0.04080783 6 0 C7 1 7 1 7.0625 3.5625 C7.041875 4.366875 7.02125 5.17125 7 6 C4.69 6.33 2.38 6.66 0 7 C0 4.69 0 2.38 0 0 Z " fill="#E9E7E4" transform="translate(857,968)"/>
<path d="M0 0 C2.875 -0.125 2.875 -0.125 6 0 C6.66 0.66 7.32 1.32 8 2 C7.54545455 7.45454545 7.54545455 7.45454545 5 10 C1.875 10.125 1.875 10.125 -1 10 C-1.66 8.68 -2.32 7.36 -3 6 C-0.69 6.33 1.62 6.66 4 7 C4 5.35 4 3.7 4 2 C2.68 1.34 1.36 0.68 0 0 Z " fill="#8C8E8E" transform="translate(804,973)"/>
<path d="M0 0 C0 5.61 0 11.22 0 17 C-0.66 17 -1.32 17 -2 17 C-2.33 12.71 -2.66 8.42 -3 4 C-3.99 4.33 -4.98 4.66 -6 5 C-6 4.01 -6 3.02 -6 2 C-2.25 0 -2.25 0 0 0 Z " fill="#838688" transform="translate(761,966)"/>
<path d="M0 0 C1.23556641 0.01740234 1.23556641 0.01740234 2.49609375 0.03515625 C3.32238281 0.04417969 4.14867187 0.05320312 5 0.0625 C5.63808594 0.07410156 6.27617188 0.08570313 6.93359375 0.09765625 C6.93359375 0.75765625 6.93359375 1.41765625 6.93359375 2.09765625 C4.62359375 2.09765625 2.31359375 2.09765625 -0.06640625 2.09765625 C0.59359375 4.07765625 1.25359375 6.05765625 1.93359375 8.09765625 C0.28359375 8.42765625 -1.36640625 8.75765625 -3.06640625 9.09765625 C-3.1640625 2.9453125 -3.1640625 2.9453125 -3.06640625 1.09765625 C-2.06640625 0.09765625 -2.06640625 0.09765625 0 0 Z " fill="#929290" transform="translate(929.06640625,965.90234375)"/>
<path d="M0 0 C0 1.65 0 3.3 0 5 C-1.65 5.33 -3.3 5.66 -5 6 C-5.66 5.01 -6.32 4.02 -7 3 C-6.67 2.34 -6.34 1.68 -6 1 C-6.66 0.67 -7.32 0.34 -8 0 C-4.71023192 -1.09658936 -3.28696233 -0.79953138 0 0 Z " fill="#F3F1ED" transform="translate(809,975)"/>
<path d="M0 0 C2.375 -0.125 2.375 -0.125 5 0 C7 2 7 2 7.1953125 4.6015625 C7.17210937 5.59929688 7.14890625 6.59703125 7.125 7.625 C7.10695313 8.62789062 7.08890625 9.63078125 7.0703125 10.6640625 C7.03550781 11.82035156 7.03550781 11.82035156 7 13 C6.34 13 5.68 13 5 13 C3.8422494 9.52674819 3.93133348 6.63932552 4 3 C2.02 3.33 0.04 3.66 -2 4 C-1.34 2.68 -0.68 1.36 0 0 Z " fill="#878A8B" transform="translate(766,939)"/>
<path d="M0 0 C1.26237731 2.52475462 1.09856404 4.31200466 1.0625 7.125 C1.05347656 8.03507813 1.04445313 8.94515625 1.03515625 9.8828125 C1.02355469 10.58148437 1.01195312 11.28015625 1 12 C0.34 12 -0.32 12 -1 12 C-2.10868317 8.67395049 -2.54177532 5.46941546 -3 2 C-4.65 2 -6.3 2 -8 2 C-8 1.34 -8 0.68 -8 0 C-5.09660535 -1.45169732 -3.09125158 -0.72348441 0 0 Z " fill="#929598" transform="translate(858,940)"/>
<path d="M0 0 C3.3 0 6.6 0 10 0 C10 0.66 10 1.32 10 2 C7.36 2 4.72 2 2 2 C2.33 4.31 2.66 6.62 3 9 C2.01 9.33 1.02 9.66 0 10 C0 6.7 0 3.4 0 0 Z " fill="#C4C5C5" transform="translate(954,966)"/>
<path d="M0 0 C1.67542976 0.28604898 3.34385343 0.61781233 5 1 C5 2.65 5 4.3 5 6 C3.34385343 6.38218767 1.67542976 6.71395102 0 7 C-1 6 -1 6 -1.125 3.5 C-1 1 -1 1 0 0 Z " fill="#F8F6F5" transform="translate(838,968)"/>
<path d="M0 0 C1.32 0.33 2.64 0.66 4 1 C4.125 4.375 4.125 4.375 4 8 C2 10 2 10 -1.125 10.125 C-2.07375 10.08375 -3.0225 10.0425 -4 10 C-4.66 8.68 -5.32 7.36 -6 6 C-3.69 6.33 -1.38 6.66 1 7 C1.15149298 3.37114676 1.15149298 3.37114676 0 0 Z " fill="#818686" transform="translate(908,942)"/>
<path d="M0 0 C0.33 0 0.66 0 1 0 C1.48403361 7.1394958 1.48403361 7.1394958 -0.6875 11 C-3 13 -3 13 -5.75 13.3125 C-6.86375 13.1578125 -6.86375 13.1578125 -8 13 C-8.66 11.68 -9.32 10.36 -10 9 C-7.03 9.495 -7.03 9.495 -4 10 C-3.34 8.35 -2.68 6.7 -2 5 C-1.67 5 -1.34 5 -1 5 C-0.67 3.35 -0.34 1.7 0 0 Z " fill="#A7A7A7" transform="translate(845,970)"/>
<path d="M0 0 C0.66 0 1.32 0 2 0 C2 1.32 2 2.64 2 4 C3.65 4.33 5.3 4.66 7 5 C7 5.33 7 5.66 7 6 C5.35 6 3.7 6 2 6 C2 7.32 2 8.64 2 10 C1.34 10 0.68 10 0 10 C0 8.68 0 7.36 0 6 C-1.32 6 -2.64 6 -4 6 C-4 5.34 -4 4.68 -4 4 C-2.68 4 -1.36 4 0 4 C0 2.68 0 1.36 0 0 Z " fill="#909293" transform="translate(902,969)"/>
<path d="M0 0 C1.65 0.33 3.3 0.66 5 1 C5 2.65 5 4.3 5 6 C3.125 6.625 3.125 6.625 1 7 C0.34 6.34 -0.32 5.68 -1 5 C-0.625 2.375 -0.625 2.375 0 0 Z " fill="#FAFAFA" transform="translate(971,943)"/>
<path d="M0 0 C0.66 0 1.32 0 2 0 C2 1.98 2 3.96 2 6 C3.98 6 5.96 6 8 6 C8 6.33 8 6.66 8 7 C6.02 7 4.04 7 2 7 C2 9.31 2 11.62 2 14 C1.34 14 0.68 14 0 14 C0 9.38 0 4.76 0 0 Z " fill="#777C7B" transform="translate(855,969)"/>
<path d="M0 0 C0.33 0.99 0.66 1.98 1 3 C-1.97 5.97 -4.94 8.94 -8 12 C-8.99 11.67 -9.98 11.34 -11 11 C-7.37 7.37 -3.74 3.74 0 0 Z " fill="#3975B1" transform="translate(448,293)"/>
<path d="M0 0 C1.8125 1.5 1.8125 1.5 3 4 C3.23884872 6.72079845 3.13709297 9.25814068 3 12 C2.67 12 2.34 12 2 12 C2 9.69 2 7.38 2 5 C1.34 5 0.68 5 0 5 C-0.33 4.34 -0.66 3.68 -1 3 C-3.02463255 2.34786708 -3.02463255 2.34786708 -5 2 C-5.33 2.66 -5.66 3.32 -6 4 C-6.33 3.01 -6.66 2.02 -7 1 C-4.4254716 -0.2872642 -2.85291355 -0.34791629 0 0 Z " fill="#929492" transform="translate(920,966)"/>
<path d="M0 0 C1.98 0 3.96 0 6 0 C6 0.66 6 1.32 6 2 C4.68 2 3.36 2 2 2 C2 5.3 2 8.6 2 12 C1.34 12 0.68 12 0 12 C0 8.04 0 4.08 0 0 Z " fill="#878B8E" transform="translate(862,940)"/>
<path d="M0 0 C3.69230769 0.69230769 3.69230769 0.69230769 5 2 C5.07226502 3.85287502 5.0838122 5.70833878 5.0625 7.5625 C5.05347656 8.57441406 5.04445313 9.58632813 5.03515625 10.62890625 C5.02355469 11.41136719 5.01195312 12.19382812 5 13 C4.34 13 3.68 13 3 13 C2.96261719 12.30132813 2.92523437 11.60265625 2.88671875 10.8828125 C2.82097656 9.97273437 2.75523437 9.06265625 2.6875 8.125 C2.62949219 7.22007812 2.57148437 6.31515625 2.51171875 5.3828125 C2.2117961 2.63778399 2.2117961 2.63778399 -1 1 C-0.67 0.67 -0.34 0.34 0 0 Z " fill="#939495" transform="translate(741,939)"/>
<path d="M0 0 C0.33 0.99 0.66 1.98 1 3 C-0.4375 5.1875 -0.4375 5.1875 -2 7 C-3.65 6.67 -5.3 6.34 -7 6 C-7 4.68 -7 3.36 -7 2 C-4.69 2 -2.38 2 0 2 C0 1.34 0 0.68 0 0 Z " fill="#FAF6F1" transform="translate(811,966)"/>
<path d="M0 0 C1.32 0.66 2.64 1.32 4 2 C3.67 3.32 3.34 4.64 3 6 C-1.55384615 6.36923077 -1.55384615 6.36923077 -3.8125 4.5 C-4.204375 4.005 -4.59625 3.51 -5 3 C-4.360625 2.87625 -3.72125 2.7525 -3.0625 2.625 C-2.0415625 2.315625 -2.0415625 2.315625 -1 2 C-0.67 1.34 -0.34 0.68 0 0 Z " fill="#EEEDEC" transform="translate(714,944)"/>
<path d="M0 0 C0.66 0.66 1.32 1.32 2 2 C3.98821313 2.39764263 5.98944339 2.73775349 8 3 C8 3.66 8 4.32 8 5 C4.37 5 0.74 5 -3 5 C-1 1 -1 1 0 0 Z " fill="#8B8F8F" transform="translate(790,978)"/>
<path d="M0 0 C0 3 0 3 -2 6 C-3.65 5.67 -5.3 5.34 -7 5 C-7 3.68 -7 2.36 -7 1 C-3.535 0.505 -3.535 0.505 0 0 Z " fill="#F7F4F1" transform="translate(936,967)"/>
<path d="M0 0 C0.66 0 1.32 0 2 0 C1.98839844 0.67546875 1.97679687 1.3509375 1.96484375 2.046875 C1.95582031 2.93890625 1.94679688 3.8309375 1.9375 4.75 C1.92589844 5.63171875 1.91429687 6.5134375 1.90234375 7.421875 C1.99173802 9.7818838 2.33087179 11.74498524 3 14 C2.01 13.67 1.02 13.34 0 13 C-1.29721449 9.10835652 -1.13033993 6.10570774 -1 2 C-0.67 1.34 -0.34 0.68 0 0 Z " fill="#858787" transform="translate(941,937)"/>
<path d="M0 0 C0.99 0.33 1.98 0.66 3 1 C0.03 3.64 -2.94 6.28 -6 9 C-6.99 8.67 -7.98 8.34 -9 8 C-6.03 5.36 -3.06 2.72 0 0 Z " fill="#3973B2" transform="translate(351,397)"/>
<path d="M0 0 C0.66 1.32 1.32 2.64 2 4 C0 6 0 6 -3.625 6.125 C-4.73875 6.08375 -5.8525 6.0425 -7 6 C-7.66 4.68 -8.32 3.36 -9 2 C-6.36 2.33 -3.72 2.66 -1 3 C-0.67 2.01 -0.34 1.02 0 0 Z " fill="#939597" transform="translate(718,946)"/>
<path d="M0 0 C0.33 0.66 0.66 1.32 1 2 C1.66 2 2.32 2 3 2 C3.33 1.34 3.66 0.68 4 0 C4 0.99 4 1.98 4 3 C0.38026598 4.31626692 -2.09567131 5 -6 5 C-6 4.01 -6 3.02 -6 2 C-4.35 2 -2.7 2 -1 2 C-0.67 1.34 -0.34 0.68 0 0 Z " fill="#CAC9C7" transform="translate(787,968)"/>
<path d="M0 0 C1.98 0.66 3.96 1.32 6 2 C6.33 3.98 6.66 5.96 7 8 C6.34 8 5.68 8 5 8 C5 6.68 5 5.36 5 4 C2.69 3.34 0.38 2.68 -2 2 C-1.34 1.34 -0.68 0.68 0 0 Z " fill="#898C8D" transform="translate(714,942)"/>
<path d="M0 0 C0.33 0 0.66 0 1 0 C2.61050328 9.99562363 2.61050328 9.99562363 0.0625 14.1875 C-0.9584375 15.0846875 -0.9584375 15.0846875 -2 16 C-2.66 15.67 -3.32 15.34 -4 15 C-3.525625 14.38125 -3.05125 13.7625 -2.5625 13.125 C-0.41947162 8.83894324 -0.26657436 4.73399291 0 0 Z " fill="#8CCFAE" transform="translate(562,700)"/>
<path d="M0 0 C1.9451 2.91765 2.45276317 4.62537285 3 8 C3.66 8 4.32 8 5 8 C4.67 8.99 4.34 9.98 4 11 C0.91053744 8.47225791 -0.02451306 5.82065719 -1 2 C-0.67 1.34 -0.34 0.68 0 0 Z " fill="#888B8C" transform="translate(874,972)"/>
<path d="M0 0 C1.66666667 3.33333333 3.33333333 6.66666667 5 10 C4.01 10.33 3.02 10.66 2 11 C-0.32590854 7.36576791 -0.16265833 4.22911669 0 0 Z " fill="#C0C1C1" transform="translate(967,940)"/>
<path d="M0 0 C2.97 0.33 5.94 0.66 9 1 C8.67 1.99 8.34 2.98 8 4 C6.02 4 4.04 4 2 4 C1.34 2.68 0.68 1.36 0 0 Z " fill="#8A8B8B" transform="translate(954,979)"/>
<path d="M0 0 C1.98 0 3.96 0 6 0 C6.33 1.32 6.66 2.64 7 4 C5.35 4 3.7 4 2 4 C2 3.34 2 2.68 2 2 C1.34 2 0.68 2 0 2 C0 1.34 0 0.68 0 0 Z " fill="#DFE0E0" transform="translate(849,941)"/>
<path d="M0 0 C1.98 0 3.96 0 6 0 C6 0.99 6 1.98 6 3 C4.35 3 2.7 3 1 3 C0.67 3.66 0.34 4.32 0 5 C-0.66 5 -1.32 5 -2 5 C-1.34 3.35 -0.68 1.7 0 0 Z " fill="#8B8E8F" transform="translate(956,935)"/>
<path d="M0 0 C2.97 0 5.94 0 9 0 C7.68 1.65 6.36 3.3 5 5 C3.35 3.35 1.7 1.7 0 0 Z " fill="#75C7A0" transform="translate(586,645)"/>
<path d="M0 0 C0 1.65 0 3.3 0 5 C-0.99 4.67 -1.98 4.34 -3 4 C-3.99 4.33 -4.98 4.66 -6 5 C-6 4.01 -6 3.02 -6 2 C-2.25 0 -2.25 0 0 0 Z " fill="#8E9090" transform="translate(761,966)"/>
<path d="M0 0 C1.65 0 3.3 0 5 0 C5 0.99 5 1.98 5 3 C3.35 3.33 1.7 3.66 0 4 C0 2.68 0 1.36 0 0 Z " fill="#E7E7E7" transform="translate(813,946)"/>
<path d="M0 0 C1.65 0 3.3 0 5 0 C5.66 1.32 6.32 2.64 7 4 C6.34 4.66 5.68 5.32 5 6 C4.67 5.01 4.34 4.02 4 3 C2.35 2.67 0.7 2.34 -1 2 C-0.67 1.34 -0.34 0.68 0 0 Z " fill="#999A9B" transform="translate(943,935)"/>
<path d="M0 0 C2.875 -0.125 2.875 -0.125 6 0 C6.66 0.66 7.32 1.32 8 2 C7.625 4.625 7.625 4.625 7 7 C6.6596875 6.071875 6.6596875 6.071875 6.3125 5.125 C4.62070165 2.38589791 3.00755839 1.94975528 0 1 C0 0.67 0 0.34 0 0 Z " fill="#858684" transform="translate(804,973)"/>
<path d="M0 0 C0.66 0.99 1.32 1.98 2 3 C1.34 4.32 0.68 5.64 0 7 C-1.65 7 -3.3 7 -5 7 C-5 6.34 -5 5.68 -5 5 C-3.68 4.67 -2.36 4.34 -1 4 C-0.67 2.68 -0.34 1.36 0 0 Z " fill="#969797" transform="translate(976,945)"/>
<path d="M0 0 C0.33 0 0.66 0 1 0 C1.375 2.1875 1.375 2.1875 1 5 C-0.83961648 6.99022836 -2.79186148 8.38989899 -5 10 C-3.66654496 6.40992874 -2.1056769 3.20429093 0 0 Z " fill="#7F8280" transform="translate(796,969)"/>
<path d="M0 0 C1.65 0 3.3 0 5 0 C5.66 1.32 6.32 2.64 7 4 C4.69 3.67 2.38 3.34 0 3 C0 2.01 0 1.02 0 0 Z " fill="#979898" transform="translate(971,935)"/>
<path d="M0 0 C2.64 0.66 5.28 1.32 8 2 C7.67 2.66 7.34 3.32 7 4 C5.35 4 3.7 4 2 4 C1.34 2.68 0.68 1.36 0 0 Z " fill="#8B8C8E" transform="translate(835,979)"/>
<path d="M0 0 C-0.33 1.32 -0.66 2.64 -1 4 C-2.32 4.33 -3.64 4.66 -5 5 C-4.625 3.0625 -4.625 3.0625 -4 1 C-2 0 -2 0 0 0 Z " fill="#F7F5F4" transform="translate(843,976)"/>
<path d="M0 0 C0.33 0 0.66 0 1 0 C1 1.98 1 3.96 1 6 C-0.32 6 -1.64 6 -3 6 C-1.125 1.125 -1.125 1.125 0 0 Z " fill="#F7F6F5" transform="translate(945,971)"/>
<path d="M0 0 C1.32 0 2.64 0 4 0 C3.67 1.32 3.34 2.64 3 4 C1.68 3.67 0.36 3.34 -1 3 C-0.67 2.01 -0.34 1.02 0 0 Z " fill="#EFEFF0" transform="translate(852,946)"/>
<path d="M0 0 C0.99 0 1.98 0 3 0 C3 1.32 3 2.64 3 4 C1.35 4 -0.3 4 -2 4 C-1.34 2.68 -0.68 1.36 0 0 Z " fill="#E1E1E1" transform="translate(767,941)"/>
</svg>
